<?xml version="1.0" encoding="iso-8859-1"?>
<!-- Generator: Adobe Illustrator 18.0.0, SVG Export Plug-In . SVG Version: 6.00 Build 0)  -->
<!DOCTYPE svg PUBLIC "-//W3C//DTD SVG 1.1//EN" "http://www.w3.org/Graphics/SVG/1.1/DTD/svg11.dtd">
<svg version="1.1" id="Capa_1" xmlns="http://www.w3.org/2000/svg" xmlns:xlink="http://www.w3.org/1999/xlink" x="0px" y="0px"
	 viewBox="0 0 207.166 207.166" style="enable-background:new 0 0 207.166 207.166;" xml:space="preserve">
<g>
	<path d="M168.353,0H38.813c-4.971,0-9,4.029-9,9s4.029,9,9,9h129.54c4.971,0,9-4.029,9-9S173.324,0,168.353,0z"/>
	<path d="M109.947,44.028c-3.515-3.515-9.213-3.515-12.728,0L56.886,84.361c-3.515,3.515-3.515,9.213,0,12.728
		c3.515,3.516,9.214,3.515,12.728,0l24.97-24.969v126.047c0,4.971,4.029,9,9,9s9-4.029,9-9V72.119l24.97,24.969
		c1.757,1.758,4.061,2.636,6.364,2.636s4.606-0.879,6.364-2.636c3.515-3.515,3.515-9.213,0-12.728L109.947,44.028z"/>
</g>
<g>
</g>
<g>
</g>
<g>
</g>
<g>
</g>
<g>
</g>
<g>
</g>
<g>
</g>
<g>
</g>
<g>
</g>
<g>
</g>
<g>
</g>
<g>
</g>
<g>
</g>
<g>
</g>
<g>
</g>
</svg>
